<?xml version="1.0" encoding="UTF-8"?>
<svg xmlns="http://www.w3.org/2000/svg" width="1536" height="319" viewBox="0 0 1536 319" fill="none">
  <defs>
    <filter id="glowCyan" x="-120%" y="-120%" width="340%" height="340%">
      <feGaussianBlur stdDeviation="4.2" result="blur"/>
      <feMerge>
        <feMergeNode in="blur"/>
        <feMergeNode in="SourceGraphic"/>
      </feMerge>
    </filter>
    <filter id="glowPurple" x="-120%" y="-120%" width="340%" height="340%">
      <feGaussianBlur stdDeviation="4.2" result="blur"/>
      <feMerge>
        <feMergeNode in="blur"/>
        <feMergeNode in="SourceGraphic"/>
      </feMerge>
    </filter>
    <filter id="softGlow" x="-120%" y="-120%" width="340%" height="340%">
      <feGaussianBlur stdDeviation="7" result="blur"/>
      <feColorMatrix in="blur" type="matrix"
        values="1 0 0 0 0
                0 1 0 0 0
                0 0 1 0 0
                0 0 0 .38 0"/>
      <feMerge>
        <feMergeNode/>
        <feMergeNode in="SourceGraphic"/>
      </feMerge>
    </filter>
    <filter id="lineGlow" x="-50%" y="-500%" width="200%" height="1200%">
      <feGaussianBlur stdDeviation="2.4" result="b"/>
      <feMerge>
        <feMergeNode in="b"/>
        <feMergeNode in="SourceGraphic"/>
      </feMerge>
    </filter>

    <linearGradient id="lineTop" x1="30" y1="0" x2="1490" y2="0" gradientUnits="userSpaceOnUse">
      <stop offset="0" stop-color="#8BFFF3"/>
      <stop offset="0.22" stop-color="#87F1FF"/>
      <stop offset="0.47" stop-color="#FFD16B"/>
      <stop offset="0.55" stop-color="#96F6FF"/>
      <stop offset="0.77" stop-color="#8ADFFF"/>
      <stop offset="0.90" stop-color="#FFC274"/>
      <stop offset="1" stop-color="#D49BFF"/>
    </linearGradient>
    <linearGradient id="lineBottom" x1="130" y1="0" x2="1470" y2="0" gradientUnits="userSpaceOnUse">
      <stop offset="0" stop-color="#7EFFF0"/>
      <stop offset="0.34" stop-color="#84F6FF"/>
      <stop offset="0.74" stop-color="#89E2FF"/>
      <stop offset="0.88" stop-color="#FFC96D"/>
      <stop offset="1" stop-color="#B389FF"/>
    </linearGradient>
    <linearGradient id="cyanStroke" x1="0" y1="0" x2="0" y2="120">
      <stop offset="0" stop-color="#E1FFFF"/>
      <stop offset="1" stop-color="#6DCBFF"/>
    </linearGradient>
    <linearGradient id="purpleStroke" x1="0" y1="0" x2="0" y2="120">
      <stop offset="0" stop-color="#F1DFFF"/>
      <stop offset="1" stop-color="#B07CFF"/>
    </linearGradient>
    <linearGradient id="chipFill" x1="0" y1="0" x2="80" y2="80">
      <stop offset="0" stop-color="#18B49D"/>
      <stop offset="0.48" stop-color="#0F6B73"/>
      <stop offset="1" stop-color="#0A3344"/>
    </linearGradient>
    <radialGradient id="iosHalo" cx="50%" cy="50%" r="50%">
      <stop offset="0" stop-color="#8BEAFF" stop-opacity=".28"/>
      <stop offset="1" stop-color="#8BEAFF" stop-opacity="0"/>
    </radialGradient>

    <radialGradient id="dataGlowCyan" cx="50%" cy="50%" r="50%">
      <stop offset="0" stop-color="#FFFFFF"/>
      <stop offset="0.35" stop-color="#B5FBFF"/>
      <stop offset="1" stop-color="#9AF5FF" stop-opacity="0"/>
    </radialGradient>
    <radialGradient id="dataGlowGold" cx="50%" cy="50%" r="50%">
      <stop offset="0" stop-color="#FFFDF3"/>
      <stop offset="0.35" stop-color="#FFE08A"/>
      <stop offset="1" stop-color="#FFD46F" stop-opacity="0"/>
    </radialGradient>
    <radialGradient id="dataGlowPurple" cx="50%" cy="50%" r="50%">
      <stop offset="0" stop-color="#FFF6FF"/>
      <stop offset="0.35" stop-color="#E5C6FF"/>
      <stop offset="1" stop-color="#D3A3FF" stop-opacity="0"/>
    </radialGradient>

    <style><![CDATA[
      .cyan { stroke:url(#cyanStroke); stroke-width:3; stroke-linecap:round; stroke-linejoin:round; fill:none; vector-effect: non-scaling-stroke; }
      .cyanThin { stroke:url(#cyanStroke); stroke-width:2.1; stroke-linecap:round; stroke-linejoin:round; fill:none; vector-effect: non-scaling-stroke; }
      .cyanHair { stroke:url(#cyanStroke); stroke-width:1.4; stroke-linecap:round; stroke-linejoin:round; fill:none; vector-effect: non-scaling-stroke; }
      .purple { stroke:url(#purpleStroke); stroke-width:3; stroke-linecap:round; stroke-linejoin:round; fill:none; vector-effect: non-scaling-stroke; }
      .purpleThin { stroke:url(#purpleStroke); stroke-width:2.1; stroke-linecap:round; stroke-linejoin:round; fill:none; vector-effect: non-scaling-stroke; }
      .dotC { fill:#9BF4FF; }
      .dotY { fill:#FFD46F; }
      .dotP { fill:#D5ABFF; }
      .iosText { font-family: Arial, Helvetica, sans-serif; font-size:64px; font-weight:500; fill:#E2FAFF; letter-spacing:-2px; }
      .ring { fill: rgba(12,26,54,.10); }
      .pulseLine { stroke-dasharray: 16 18; }
      .ringPulse { opacity:.35; }
    ]]></style>

    <path id="pathTop1" d="M30 112 H245" />
    <path id="pathTop2" d="M245 112 H472" />
    <path id="pathTop3" d="M472 112 H698" />
    <path id="pathTop4" d="M698 112 H924" />
    <path id="pathTop5" d="M924 112 H1145" />
    <path id="pathTop6" d="M1145 112 H1362" />
    <path id="pathTop7" d="M1362 112 H1465" />

    <path id="pathBottom1" d="M130 277 H359" />
    <path id="pathBottom2" d="M359 277 H584" />
    <path id="pathBottom3" d="M584 277 H812" />
    <path id="pathBottom4" d="M812 277 H1035" />
    <path id="pathBottom5" d="M1035 277 H1254" />
    <path id="pathBottom6" d="M1254 277 H1430 Q1445 277 1445 262 V199" />
  </defs>

  <!-- lines -->
  <path d="M30 112 H1465" stroke="url(#lineTop)" stroke-width="3.2" stroke-linecap="round" filter="url(#lineGlow)"/>
  <path d="M30 112 H1465" stroke="url(#lineTop)" stroke-width="2.2" stroke-linecap="round" class="pulseLine" opacity="0.74">
    <animate attributeName="stroke-dashoffset" from="0" to="-68" dur="2.6s" repeatCount="indefinite"/>
  </path>

  <path d="M130 277 H1430 Q1445 277 1445 262 V199" stroke="url(#lineBottom)" stroke-width="3.0" stroke-linecap="round" stroke-linejoin="round" filter="url(#lineGlow)"/>
  <path d="M130 277 H1430 Q1445 277 1445 262 V199" stroke="url(#lineBottom)" stroke-width="2.0" stroke-linecap="round" stroke-linejoin="round" class="pulseLine" opacity="0.62">
    <animate attributeName="stroke-dashoffset" from="0" to="-68" dur="3.0s" repeatCount="indefinite"/>
  </path>

  <!-- stems -->
  <g stroke="url(#lineBottom)" stroke-width="2.2" stroke-linecap="round" filter="url(#lineGlow)" opacity=".9">
    <path d="M130 210 V277"/>
    <path d="M359 198 V277"/>
    <path d="M584 198 V277"/>
    <path d="M812 198 V277"/>
    <path d="M1035 198 V277"/>
    <path d="M1254 198 V277"/>
  </g>

  <!-- rings -->
  <g filter="url(#softGlow)">
    <circle cx="130" cy="112" r="98" class="ring"/>
    <circle cx="130" cy="112" r="98" class="cyan"/>
    <circle cx="359" cy="112" r="86" class="ring"/>
    <circle cx="359" cy="112" r="86" class="cyan"/>
    <circle cx="584" cy="112" r="86" class="ring"/>
    <circle cx="584" cy="112" r="86" class="cyan"/>
    <circle cx="812" cy="112" r="86" class="ring"/>
    <circle cx="812" cy="112" r="86" class="cyan"/>
    <circle cx="1035" cy="112" r="86" class="ring"/>
    <circle cx="1035" cy="112" r="86" class="cyan"/>
    <circle cx="1254" cy="112" r="86" class="ring"/>
    <circle cx="1254" cy="112" r="86" class="purple"/>
    <rect x="1384" y="25" width="122" height="174" rx="30" fill="rgba(35,26,72,.12)"/>
    <rect x="1384" y="25" width="122" height="174" rx="30" class="purple"/>
  </g>

  <!-- subtle pulsing selected rings -->
  <g filter="url(#softGlow)" opacity=".42">
    <circle cx="1035" cy="112" r="86" fill="url(#iosHalo)" class="ringPulse">
      <animate attributeName="r" values="82;90;82" dur="3.5s" repeatCount="indefinite"/>
      <animate attributeName="opacity" values=".18;.34;.18" dur="3.5s" repeatCount="indefinite"/>
    </circle>
    <circle cx="1254" cy="112" r="86" fill="url(#iosHalo)" class="ringPulse">
      <animate attributeName="r" values="82;90;82" dur="4.2s" repeatCount="indefinite"/>
      <animate attributeName="opacity" values=".10;.24;.10" dur="4.2s" repeatCount="indefinite"/>
    </circle>
  </g>

  <!-- nodes -->
  <g filter="url(#glowCyan)">
    <circle cx="245" cy="112" r="8.5" class="dotC"/>
    <circle cx="472" cy="112" r="8.5" class="dotC"/>
    <circle cx="698" cy="112" r="8.5" class="dotY"/>
    <circle cx="924" cy="112" r="8.5" class="dotC"/>
    <circle cx="1145" cy="112" r="8.5" class="dotC"/>
    <circle cx="1362" cy="112" r="8.5" class="dotY"/>
  </g>
  <g filter="url(#glowCyan)">
    <circle cx="130" cy="277" r="9.5" class="dotC"/>
    <circle cx="359" cy="277" r="9.5" class="dotC"/>
    <circle cx="584" cy="277" r="9.5" class="dotC"/>
    <circle cx="812" cy="277" r="9.5" class="dotC"/>
    <circle cx="1035" cy="277" r="9.5" class="dotC"/>
    <circle cx="1254" cy="277" r="9.5" class="dotY"/>
  </g>

  <!-- data particles -->
  <g>
    <circle r="6" fill="url(#dataGlowCyan)"><animateMotion dur="2.6s" repeatCount="indefinite"><mpath href="#pathTop1"/></animateMotion></circle>
    <circle r="6" fill="url(#dataGlowCyan)"><animateMotion dur="2.6s" begin=".36s" repeatCount="indefinite"><mpath href="#pathTop2"/></animateMotion></circle>
    <circle r="6" fill="url(#dataGlowGold)"><animateMotion dur="2.6s" begin=".72s" repeatCount="indefinite"><mpath href="#pathTop3"/></animateMotion></circle>
    <circle r="6" fill="url(#dataGlowCyan)"><animateMotion dur="2.6s" begin="1.08s" repeatCount="indefinite"><mpath href="#pathTop4"/></animateMotion></circle>
    <circle r="6" fill="url(#dataGlowCyan)"><animateMotion dur="2.6s" begin="1.44s" repeatCount="indefinite"><mpath href="#pathTop5"/></animateMotion></circle>
    <circle r="6" fill="url(#dataGlowGold)"><animateMotion dur="2.6s" begin="1.8s" repeatCount="indefinite"><mpath href="#pathTop6"/></animateMotion></circle>
    <circle r="6" fill="url(#dataGlowPurple)"><animateMotion dur="2.6s" begin="2.08s" repeatCount="indefinite"><mpath href="#pathTop7"/></animateMotion></circle>

    <circle r="4.8" fill="url(#dataGlowCyan)"><animateMotion dur="3.2s" begin=".2s" repeatCount="indefinite"><mpath href="#pathBottom1"/></animateMotion></circle>
    <circle r="4.8" fill="url(#dataGlowCyan)"><animateMotion dur="3.2s" begin=".8s" repeatCount="indefinite"><mpath href="#pathBottom2"/></animateMotion></circle>
    <circle r="4.8" fill="url(#dataGlowCyan)"><animateMotion dur="3.2s" begin="1.4s" repeatCount="indefinite"><mpath href="#pathBottom3"/></animateMotion></circle>
    <circle r="4.8" fill="url(#dataGlowCyan)"><animateMotion dur="3.2s" begin="2.0s" repeatCount="indefinite"><mpath href="#pathBottom4"/></animateMotion></circle>
    <circle r="4.8" fill="url(#dataGlowGold)"><animateMotion dur="3.2s" begin="2.6s" repeatCount="indefinite"><mpath href="#pathBottom5"/></animateMotion></circle>
    <circle r="4.8" fill="url(#dataGlowPurple)"><animateMotion dur="3.2s" begin="3.0s" repeatCount="indefinite"><mpath href="#pathBottom6"/></animateMotion></circle>
  </g>

  <!-- 1 chip -->
  <g transform="translate(130 112)" filter="url(#softGlow)">
    <rect x="-36" y="-36" width="72" height="72" rx="5" fill="url(#chipFill)" stroke="#D4FFFF" stroke-width="2.8"/>
    <path class="cyanHair" d="M-20 -49V-57M-6 -49V-57M8 -49V-57M22 -49V-57M-20 49V57M-6 49V57M8 49V57M22 49V57"/>
    <path class="cyanHair" d="M-49 -20H-57M-49 -6H-57M-49 8H-57M-49 22H-57M49 -20H57M49 -6H57M49 8H57M49 22H57"/>
    <path class="cyan" d="M0 -17L8 -7L21 0L8 7L0 17L-8 7L-21 0L-8 -7L0 -17Z"/>
    <path class="cyanHair" d="M-11 0H11M0 -11V11"/>
    <rect x="-24" y="-24" width="48" height="48" rx="4" opacity=".12" fill="#FFFFFF"/>
  </g>

  <!-- 2 lab -->
  <g transform="translate(359 112)" filter="url(#softGlow)">
    <circle cx="-29" cy="-21" r="6.5" fill="#B2FCFF"/>
    <path class="cyanHair" d="M-46 35H42"/>
    <path class="cyanHair" d="M-43 35V12"/>
    <path class="cyanHair" d="M-43 12H-27"/>
    <path class="cyanThin" d="M-14 -39H27"/>
    <path class="cyan" d="M-4 -35V-3L-24 34H25L5 -3V-35"/>
    <path class="cyanHair" d="M-17 18C-9 14 0 14 10 18C16 21 22 22 28 20"/>
    <path class="cyanHair" d="M42 -26V-39H-29V-18"/>
    <path class="cyanHair" d="M-2 -13H4"/>
    <ellipse cx="2" cy="19" rx="24" ry="10" fill="#6FEFFF" opacity=".08"/>
  </g>

  <!-- 3 telecom -->
  <g transform="translate(584 112)" filter="url(#softGlow)">
    <path class="cyan" d="M0 -36L-26 36H26L0 -36Z"/>
    <path class="cyanHair" d="M0 -15V36M-14 10H14M-19 23H19M-7 -2H7"/>
    <path class="cyanHair" d="M-28 36H28"/>
    <path class="cyanHair" d="M14 -55C30 -49 42 -37 46 -21"/>
    <path class="cyanHair" d="M-14 -55C-30 -49 -42 -37 -46 -21"/>
    <path class="cyanHair" d="M20 -68C42 -60 58 -43 62 -19"/>
    <path class="cyanHair" d="M-20 -68C-42 -60 -58 -43 -62 -19"/>
    <circle cx="0" cy="-36" r="3.2" fill="#C5FFFF"/>
  </g>

  <!-- 4 electrical -->
  <g transform="translate(812 112)" filter="url(#softGlow)">
    <rect x="-36" y="-36" width="72" height="72" rx="5" fill="rgba(11,49,73,0.44)" stroke="#D3FFFF" stroke-width="2.8"/>
    <path class="cyanHair" d="M-20 -49V-57M-6 -49V-57M8 -49V-57M22 -49V-57M-20 49V57M-6 49V57M8 49V57M22 49V57"/>
    <path class="cyanHair" d="M-49 -20H-57M-49 -6H-57M-49 8H-57M-49 22H-57M49 -20H57M49 -6H57M49 8H57M49 22H57"/>
    <path d="M12 -17L-6 7H5L-10 30L16 0H2L12 -17Z" fill="#FFE563" stroke="#FFE563" stroke-width="2.2" stroke-linejoin="round"/>
    <rect x="-24" y="-24" width="48" height="48" rx="4" opacity=".08" fill="#FFFFFF"/>
  </g>

  <!-- 5 iOS -->
  <g transform="translate(1035 112)" filter="url(#softGlow)">
    <ellipse cx="0" cy="0" rx="54" ry="28" fill="url(#iosHalo)"/>
    <text x="0" y="17" text-anchor="middle" class="iosText">iOS</text>
    <path class="cyanHair" d="M-42 36H42"/>
    <ellipse cx="0" cy="36" rx="18" ry="2.8" fill="#98F4FF"/>
  </g>

  <!-- 6 cloud -->
  <g transform="translate(1254 112)" filter="url(#softGlow)">
    <g transform="translate(10 0) scale(0.86)">
      <path class="purple" d="M-40 24H33C48 24 60 14 60 1C60 -13 49 -24 36 -26C34 -44 17 -57 -2 -57C-18 -57 -32 -50 -40 -38C-44 -39 -47 -39 -50 -39C-68 -39 -81 -25 -81 -7C-81 10 -67 24 -49 24H-40Z"/>
      <path class="purpleHair" d=""/>
      <path class="purpleThin" d="M-31 49H23"/>
      <path class="purpleThin" d="M-30 33V54M-17 33V54M28 33V54"/>
      <rect x="-4" y="0" width="42" height="46" rx="5" class="purpleThin"/>
      <path class="purpleThin" d="M5 10H29M5 18H29M5 26H29M5 34H29"/>
    </g>
  </g>

  <!-- 7 gears -->
  <g transform="translate(1445 112)" filter="url(#softGlow)">
    <g>
      <animateTransform attributeName="transform" type="rotate" from="0 -18 20" to="360 -18 20" dur="8s" repeatCount="indefinite"/>
      <circle cx="-18" cy="20" r="24" class="purple"/>
      <circle cx="-18" cy="20" r="9" class="purpleThin"/>
      <g fill="#E5CFFF" stroke="none">
        <rect x="-21" y="-18" width="6" height="10" rx="2"/>
        <rect x="-21" y="48" width="6" height="10" rx="2"/>
        <rect x="-56" y="17" width="10" height="6" rx="2"/>
        <rect x="10" y="17" width="10" height="6" rx="2"/>
        <rect x="-46.7" y="-4.7" width="9" height="6" rx="2" transform="rotate(-45 -42.2 -1.7)"/>
        <rect x="1.3" y="43.3" width="9" height="6" rx="2" transform="rotate(-45 5.8 46.3)"/>
        <rect x="1.3" y="-4.7" width="9" height="6" rx="2" transform="rotate(45 5.8 -1.7)"/>
        <rect x="-46.7" y="43.3" width="9" height="6" rx="2" transform="rotate(45 -42.2 46.3)"/>
      </g>
    </g>

    <g>
      <animateTransform attributeName="transform" type="rotate" from="360 34 -8" to="0 34 -8" dur="6.4s" repeatCount="indefinite"/>
      <circle cx="34" cy="-8" r="20" class="purple"/>
      <circle cx="34" cy="-8" r="7" class="purpleThin"/>
      <g fill="#F0DEFF" stroke="none">
        <rect x="31" y="-40" width="6" height="9" rx="2"/>
        <rect x="31" y="14" width="6" height="9" rx="2"/>
        <rect x="3" y="-11" width="9" height="6" rx="2"/>
        <rect x="56" y="-11" width="9" height="6" rx="2"/>
        <rect x="9.5" y="-28.5" width="8" height="5.5" rx="2" transform="rotate(-45 13.5 -25.75)"/>
        <rect x="50.5" y="12.5" width="8" height="5.5" rx="2" transform="rotate(-45 54.5 15.25)"/>
        <rect x="50.5" y="-28.5" width="8" height="5.5" rx="2" transform="rotate(45 54.5 -25.75)"/>
        <rect x="9.5" y="12.5" width="8" height="5.5" rx="2" transform="rotate(45 13.5 15.25)"/>
      </g>
    </g>

    <circle cx="44" cy="50" r="4.8" class="dotP">
      <animate attributeName="opacity" values="1;.45;1" dur="2.8s" repeatCount="indefinite"/>
    </circle>
    <circle cx="-20" cy="74" r="4.8" class="dotP">
      <animate attributeName="opacity" values="1;.4;1" dur="3.1s" repeatCount="indefinite"/>
    </circle>
  </g>
</svg>
